HIERARCHY
ROOT Hips
{
  OFFSET 5.72205e-005 65.662 3.42586
  CHANNELS 6 Xposition Yposition Zposition Zrotation Xrotation Yrotation
  JOINT Chest
  {
    OFFSET 0 8.7983 -4.7612
    CHANNELS 6 Xposition Yposition Zposition Zrotation Xrotation Yrotation
    JOINT Chest2
    {
      OFFSET 0 8.0291 0.4195
      CHANNELS 6 Xposition Yposition Zposition Zrotation Xrotation Yrotation
      JOINT Chest3
      {
        OFFSET 0 9.9351 -2.2114
        CHANNELS 6 Xposition Yposition Zposition Zrotation Xrotation Yrotation
        JOINT Neck
        {
          OFFSET 0 22.3885 -0.4656
          CHANNELS 6 Xposition Yposition Zposition Zrotation Xrotation Yrotation
          JOINT Head
          {
            OFFSET -0.0001 12.643 3.4389
            CHANNELS 6 Xposition Yposition Zposition Zrotation Xrotation Yrotation
            End Site
            {
              OFFSET 0.0001 17.6655 0.5274
            }
          }
        }
        JOINT LeftCollar
        {
          OFFSET 2.2603 21.606 7.4023
          CHANNELS 6 Xposition Yposition Zposition Zrotation Xrotation Yrotation
          JOINT LeftShoulder
          {
            OFFSET 13.5163 -1.1332 -5.0146
            CHANNELS 6 Xposition Yposition Zposition Zrotation Xrotation Yrotation
            JOINT LeftElbow
            {
              OFFSET -0.0995 -28.05 -0.2431
              CHANNELS 6 Xposition Yposition Zposition Zrotation Xrotation Yrotation
              JOINT LeftWrist
              {
                OFFSET 0.0679 -23.3996 -0.1402
                CHANNELS 6 Xposition Yposition Zposition Zrotation Xrotation Yrotation
                JOINT LeftFinger1
                {
                  OFFSET 0.7932 -9.069 2.5189
                  CHANNELS 6 Xposition Yposition Zposition Zrotation Xrotation Yrotation
                  JOINT LeftFinger11
                  {
                    OFFSET -0.8272 -3.3923 0.5977
                    CHANNELS 6 Xposition Yposition Zposition Zrotation Xrotation Yrotation
                    JOINT LeftFinger12
                    {
                      OFFSET -0.5649 -2.3158 0.4082
                      CHANNELS 6 Xposition Yposition Zposition Zrotation Xrotation Yrotation
                      End Site
                      {
                        OFFSET -0.4919 -1.6479 0.2673
                      }
                    }
                  }
                }
                JOINT LeftFinger2
                {
                  OFFSET 0.9159 -9.2044 0.2193
                  CHANNELS 6 Xposition Yposition Zposition Zrotation Xrotation Yrotation
                  JOINT LeftFinger21
                  {
                    OFFSET 0.0117 -4.1944 -0.0248
                    CHANNELS 6 Xposition Yposition Zposition Zrotation Xrotation Yrotation
                    JOINT LeftFinger22
                    {
                      OFFSET 0.0071 -2.3249 -0.0142
                      CHANNELS 6 Xposition Yposition Zposition Zrotation Xrotation Yrotation
                      End Site
                      {
                        OFFSET -0.1475 -2.0882 0.0028
                      }
                    }
                  }
                }
                JOINT LeftFinger3
                {
                  OFFSET 0.6113 -8.7231 -2.0637
                  CHANNELS 6 Xposition Yposition Zposition Zrotation Xrotation Yrotation
                  JOINT LeftFinger31
                  {
                    OFFSET -0.1927 -3.8059 -0.2383
                    CHANNELS 6 Xposition Yposition Zposition Zrotation Xrotation Yrotation
                    JOINT LeftFinger32
                    {
                      OFFSET -0.1091 -2.1688 -0.1362
                      CHANNELS 6 Xposition Yposition Zposition Zrotation Xrotation Yrotation
                      End Site
                      {
                        OFFSET -0.2358 -1.9176 -0.0906
                      }
                    }
                  }
                }
                JOINT LeftFinger4
                {
                  OFFSET -0.6151 -8.0947 -3.5641
                  CHANNELS 6 Xposition Yposition Zposition Zrotation Xrotation Yrotation
                  JOINT LeftFinger41
                  {
                    OFFSET -0.4882 -2.341 -0.6462
                    CHANNELS 6 Xposition Yposition Zposition Zrotation Xrotation Yrotation
                    JOINT LeftFinger42
                    {
                      OFFSET -0.3575 -1.7167 -0.4742
                      CHANNELS 6 Xposition Yposition Zposition Zrotation Xrotation Yrotation
                      End Site
                      {
                        OFFSET -0.4187 -1.5237 -0.3496
                      }
                    }
                  }
                }
                JOINT LeftFinger0
                {
                  OFFSET -1.42 -1.8761 1.4223
                  CHANNELS 6 Xposition Yposition Zposition Zrotation Xrotation Yrotation
                  JOINT LeftFinger01
                  {
                    OFFSET -1.1471 -3.4929 2.6334
                    CHANNELS 6 Xposition Yposition Zposition Zrotation Xrotation Yrotation
                    JOINT LeftFinger02
                    {
                      OFFSET -0.823 -2.3 1.6571
                      CHANNELS 6 Xposition Yposition Zposition Zrotation Xrotation Yrotation
                      End Site
                      {
                        OFFSET -0.5822 -1.6914 1.1582
                      }
                    }
                  }
                }
              }
            }
          }
        }
        JOINT RightCollar
        {
          OFFSET -2.2603 21.606 7.4023
          CHANNELS 6 Xposition Yposition Zposition Zrotation Xrotation Yrotation
          JOINT RightShoulder
          {
            OFFSET -13.5187 -1.1334 -5.0155
            CHANNELS 6 Xposition Yposition Zposition Zrotation Xrotation Yrotation
            JOINT RightElbow
            {
              OFFSET 0.0994 -28.0499 -0.2431
              CHANNELS 6 Xposition Yposition Zposition Zrotation Xrotation Yrotation
              JOINT RightWrist
              {
                OFFSET -0.0679 -23.3996 -0.1402
                CHANNELS 6 Xposition Yposition Zposition Zrotation Xrotation Yrotation
                JOINT RightFinger1
                {
                  OFFSET -0.7932 -9.0691 2.5189
                  CHANNELS 6 Xposition Yposition Zposition Zrotation Xrotation Yrotation
                  JOINT RightFinger11
                  {
                    OFFSET 0.8272 -3.3923 0.5977
                    CHANNELS 6 Xposition Yposition Zposition Zrotation Xrotation Yrotation
                    JOINT RightFinger12
                    {
                      OFFSET 0.565 -2.3158 0.4082
                      CHANNELS 6 Xposition Yposition Zposition Zrotation Xrotation Yrotation
                      End Site
                      {
                        OFFSET 0.4919 -1.6479 0.2673
                      }
                    }
                  }
                }
                JOINT RightFinger2
                {
                  OFFSET -0.916 -9.2044 0.2193
                  CHANNELS 6 Xposition Yposition Zposition Zrotation Xrotation Yrotation
                  JOINT RightFinger21
                  {
                    OFFSET -0.0117 -4.1944 -0.0248
                    CHANNELS 6 Xposition Yposition Zposition Zrotation Xrotation Yrotation
                    JOINT RightFinger22
                    {
                      OFFSET -0.0071 -2.3249 -0.0142
                      CHANNELS 6 Xposition Yposition Zposition Zrotation Xrotation Yrotation
                      End Site
                      {
                        OFFSET 0.1475 -2.0882 0.0028
                      }
                    }
                  }
                }
                JOINT RightFinger3
                {
                  OFFSET -0.6113 -8.7231 -2.0637
                  CHANNELS 6 Xposition Yposition Zposition Zrotation Xrotation Yrotation
                  JOINT RightFinger31
                  {
                    OFFSET 0.1927 -3.8059 -0.2383
                    CHANNELS 6 Xposition Yposition Zposition Zrotation Xrotation Yrotation
                    JOINT RightFinger32
                    {
                      OFFSET 0.1091 -2.1688 -0.1362
                      CHANNELS 6 Xposition Yposition Zposition Zrotation Xrotation Yrotation
                      End Site
                      {
                        OFFSET 0.2358 -1.9176 -0.0906
                      }
                    }
                  }
                }
                JOINT RightFinger4
                {
                  OFFSET 0.6151 -8.0947 -3.564
                  CHANNELS 6 Xposition Yposition Zposition Zrotation Xrotation Yrotation
                  JOINT RightFinger41
                  {
                    OFFSET 0.4882 -2.341 -0.6462
                    CHANNELS 6 Xposition Yposition Zposition Zrotation Xrotation Yrotation
                    JOINT RightFinger42
                    {
                      OFFSET 0.3574 -1.7166 -0.4742
                      CHANNELS 6 Xposition Yposition Zposition Zrotation Xrotation Yrotation
                      End Site
                      {
                        OFFSET 0.4187 -1.5237 -0.3496
                      }
                    }
                  }
                }
                JOINT RightFinger0
                {
                  OFFSET 1.4199 -1.8761 1.4221
                  CHANNELS 6 Xposition Yposition Zposition Zrotation Xrotation Yrotation
                  JOINT RightFinger01
                  {
                    OFFSET 1.1472 -3.4929 2.6336
                    CHANNELS 6 Xposition Yposition Zposition Zrotation Xrotation Yrotation
                    JOINT RightFinger02
                    {
                      OFFSET 0.8229 -2.3 1.6571
                      CHANNELS 6 Xposition Yposition Zposition Zrotation Xrotation Yrotation
                      End Site
                      {
                        OFFSET 0.5822 -1.6914 1.1582
                      }
                    }
                  }
                }
              }
            }
          }
        }
      }
    }
  }
  JOINT RightHip
  {
    OFFSET -9.412 3.9771 -0.7758
    CHANNELS 6 Xposition Yposition Zposition Zrotation Xrotation Yrotation
    JOINT RightKnee
    {
      OFFSET -0.7531 -40.938 0
      CHANNELS 6 Xposition Yposition Zposition Zrotation Xrotation Yrotation
      JOINT RightAnkle
      {
        OFFSET 0 -40.1986 0
        CHANNELS 6 Xposition Yposition Zposition Zrotation Xrotation Yrotation
        JOINT RightToe
        {
          OFFSET 0 -4.4182 9.239
          CHANNELS 6 Xposition Yposition Zposition Zrotation Xrotation Yrotation
          End Site
          {
            OFFSET 0 0 6.1981
          }
        }
      }
    }
  }
  JOINT LeftHip
  {
    OFFSET 9.4119 3.9773 -0.7758
    CHANNELS 6 Xposition Yposition Zposition Zrotation Xrotation Yrotation
    JOINT LeftKnee
    {
      OFFSET 0.7532 -40.9383 0
      CHANNELS 6 Xposition Yposition Zposition Zrotation Xrotation Yrotation
      JOINT LeftAnkle
      {
        OFFSET 0 -40.1986 0
        CHANNELS 6 Xposition Yposition Zposition Zrotation Xrotation Yrotation
        JOINT LeftToe
        {
          OFFSET 0 -4.4182 9.239
          CHANNELS 6 Xposition Yposition Zposition Zrotation Xrotation Yrotation
          End Site
          {
            OFFSET 0 0 6.1981
          }
        }
      }
    }
  }
}
MOTION
Frames:	4
Frame Time:	0.0333333
-0.35273 2.13834 9.73089 179.999 -89.9981 179.999 0 8.7983 -4.7612 -0.0237918 10.2862 -0.157283 0 8.0291 0.4195 -0.0187973 20.5725 -0.318043 -5.55112e-017 9.9351 -2.2114 -0.0187972 20.5725 -0.318043 0 22.3885 -0.4656 1.60783 8.37685 26.5875 -0.0001 12.643 3.4389 -0.108282 0.690612 24.9915 2.2603 21.606 7.4023 -7.73476 -0.188751 -3.51607 13.5163 -1.1332 -5.0146 11.0414 33.848 21.9383 -0.0995 -28.05 -0.2431 -21.1905 -71.1946 -48.5299 0.0679 -23.3996 -0.1402 -1.50542 -6.58517 -21.817 0.7932 -9.069 2.5189 -2.99851e-006 -6.41631e-007 -2.80307e-006 -0.8272 -3.3923 0.5977 -9.692e-006 6.07892e-006 -4.14768e-006 -0.5649 -2.3158 0.4082 5.83964e-006 -5.26504e-006 -2.02631e-006 0.9159 -9.2044 0.2193 -2.99851e-006 -6.41631e-007 -2.80307e-006 0.0117 -4.1944 -0.0248 -0.0128231 0.0023276 8.95912e-005 0.0071 -2.3249 -0.0142 -1.67337e-006 -1.16743e-006 -3.3622e-007 0.6113 -8.7231 -2.0637 -2.99851e-006 -6.41631e-007 -2.80307e-006 -0.1927 -3.8059 -0.2383 -0.0160411 0.0029934 0.000860656 -0.1091 -2.1688 -0.1362 -1.67337e-006 -2.52748e-006 -3.36238e-007 -0.6151 -8.0947 -3.5641 -2.99851e-006 -6.41631e-007 -2.80307e-006 -0.4882 -2.341 -0.6462 -0.0126215 0.00311908 0.0028319 -0.3575 -1.7167 -0.4742 -1.32443e-006 2.9886e-007 -2.46712e-006 -1.42 -1.8761 1.4223 -2.99851e-006 -6.41631e-007 -2.80307e-006 -1.1471 -3.4929 2.6334 -9.692e-006 6.07892e-006 -4.14768e-006 -0.823 -2.3 1.6571 5.83964e-006 -5.26504e-006 -2.02631e-006 -2.2603 21.606 7.4023 -0.642406 -8.07744 12.115 -13.5187 -1.1334 -5.0155 -21.6319 -14.5755 15.2726 0.0994 -28.0499 -0.2431 66.1712 -56.7895 18.8871 -0.0679 -23.3996 -0.1402 -31.9734 3.63872 0.330705 -0.7932 -9.0691 2.5189 3.18055e-015 1.59028e-015 1.59028e-015 0.8272 -3.3923 0.5977 9.54166e-015 0 7.95139e-016 0.565 -2.3158 0.4082 -0 -1.59028e-015 -0 -0.916 -9.2044 0.2193 3.18055e-015 1.59028e-015 1.59028e-015 -0.0117 -4.1944 -0.0248 0.0129507 0.00230895 -8.93033e-005 -0.0071 -2.3249 -0.0142 -2.97362e-006 3.87017e-007 1.63176e-006 -0.6113 -8.7231 -2.0637 3.18055e-015 1.59028e-015 1.59028e-015 0.1927 -3.8059 -0.2383 0.0163454 0.00304028 -0.000882391 0.1091 -2.1688 -0.1362 3.18055e-015 -4.77083e-015 -0 0.6151 -8.0947 -3.564 3.18055e-015 1.59028e-015 1.59028e-015 0.4882 -2.341 -0.6462 0.0145759 0.00367227 -0.00326369 0.3574 -1.7166 -0.4742 3.18055e-015 -1.59028e-015 7.95139e-016 1.4199 -1.8761 1.4221 3.18055e-015 1.59028e-015 1.59028e-015 1.1472 -3.4929 2.6336 9.54166e-015 0 7.95139e-016 0.8229 -2.3 1.6571 -0 -1.59028e-015 -0 -9.412 3.9771 -0.7758 -43.7775 -40.9369 -6.67262 -0.7531 -40.938 8.88178e-016 175.732 69.3474 -178.333 0 -40.1986 0 -27.7731 29.3591 50.9465 0 -4.4182 9.239 -1.48692e-006 -4.90584e-008 3.77847e-007 9.4119 3.9773 -0.7758 9.06925 4.18798 -25.5161 0.7532 -40.9383 2.22045e-016 -5.63541 4.31238 0.147551 -1.77636e-015 -40.1986 2.66454e-015 13.4595 -6.03554 4.73082 -3.55271e-015 -4.4182 9.239 -1.64693e-006 1.00672e-005 -1.46735e-007 
-0.352302 2.13843 9.73093 180 -89.9981 180 5.55112e-017 8.7983 -4.7612 -0.0278186 10.103 -0.156029 -5.55111e-017 8.0291 0.4195 -0.0278363 20.2062 -0.314514 0 9.9351 -2.2114 -0.0278363 20.2062 -0.314514 0 22.3885 -0.4656 1.4971 9.06368 26.6073 -0.0001 12.643 3.4389 -0.100688 0.998092 24.9922 2.2603 21.606 7.4023 -7.23895 0.057498 -3.27762 13.5163 -1.1332 -5.0146 10.5559 33.8459 22.1472 -0.0995 -28.05 -0.2431 -21.8894 -71.2304 -49.1998 0.0679 -23.3996 -0.1402 -1.96399 -6.01162 -22.1849 0.7932 -9.069 2.5189 1.59028e-015 3.18055e-015 -5.81445e-015 -0.8272 -3.3923 0.5977 1.39149e-015 0 7.45443e-016 -0.5649 -2.3158 0.4082 -3.97252e-031 3.18055e-015 7.15625e-015 0.9159 -9.2044 0.2193 1.59028e-015 3.18055e-015 -5.81445e-015 0.0117 -4.1944 -0.0248 -0.0128213 0.00232771 9.43261e-005 0.0071 -2.3249 -0.0142 -3.77691e-015 -3.18055e-015 1.58531e-014 0.6113 -8.7231 -2.0637 1.59028e-015 3.18055e-015 -5.81445e-015 -0.1927 -3.8059 -0.2383 -0.0160646 0.00301187 0.000867615 -0.1091 -2.1688 -0.1362 7.95139e-016 0 -7.95139e-015 -0.6151 -8.0947 -3.5641 1.59028e-015 3.18055e-015 -5.81445e-015 -0.4882 -2.341 -0.6462 -0.012593 0.0031231 0.00283141 -0.3575 -1.7167 -0.4742 -2.38542e-015 4.77083e-015 -4.42296e-015 -1.42 -1.8761 1.4223 1.59028e-015 3.18055e-015 -5.81445e-015 -1.1471 -3.4929 2.6334 1.39149e-015 0 7.45443e-016 -0.823 -2.3 1.6571 -3.97252e-031 3.18055e-015 7.15625e-015 -2.2603 21.606 7.4023 -0.213479 -7.53921 12.3813 -13.5187 -1.1334 -5.0155 -21.8784 -14.681 15.1617 0.0994 -28.0499 -0.2431 64.8222 -56.1068 17.4128 -0.0679 -23.3996 -0.1402 -31.5897 3.96903 0.126274 -0.7932 -9.0691 2.5189 3.18055e-015 0 1.59028e-015 0.8272 -3.3923 0.5977 6.36111e-015 3.18055e-015 -0 0.565 -2.3158 0.4082 3.18055e-015 0 7.95139e-016 -0.916 -9.2044 0.2193 3.18055e-015 0 1.59028e-015 -0.0117 -4.1944 -0.0248 0.012969 0.00232184 -8.77212e-005 -0.0071 -2.3249 -0.0142 2.20695e-032 -1.59028e-015 7.95139e-016 -0.6113 -8.7231 -2.0637 3.18055e-015 0 1.59028e-015 0.1927 -3.8059 -0.2383 0.0163473 0.00304173 -0.000877663 0.1091 -2.1688 -0.1362 -4.41391e-032 3.18055e-015 7.95139e-016 0.6151 -8.0947 -3.564 3.18055e-015 0 1.59028e-015 0.4882 -2.341 -0.6462 0.0145773 0.00368011 -0.00326395 0.3574 -1.7166 -0.4742 -0 0 7.95139e-016 1.4199 -1.8761 1.4221 3.18055e-015 0 1.59028e-015 1.1472 -3.4929 2.6336 6.36111e-015 3.18055e-015 -0 0.8229 -2.3 1.6571 3.18055e-015 0 7.95139e-016 -9.412 3.9771 -0.7758 -42.646 -41.0327 -5.35775 -0.7531 -40.938 2.66454e-015 175.733 69.3463 -178.33 0 -40.1986 0 -26.5995 29.6581 50.3458 -7.10543e-015 -4.4182 9.239 -3.57329e-008 0 1.00561e-007 9.4119 3.9773 -0.7758 9.06874 4.18737 -25.516 0.7532 -40.9383 -8.88179e-016 -5.63549 4.31346 0.147658 -1.77636e-015 -40.1986 2.66454e-015 13.4597 -6.03586 4.73085 3.55271e-015 -4.4182 9.239 2.47039e-006 4.60663e-007 2.20103e-007 
-0.351874 2.1385 9.73095 -180 -89.9981 -180 0 8.7983 -4.7612 -0.0318318 9.91985 -0.154809 0 8.0291 0.4195 -0.0368143 19.8398 -0.311098 0 9.9351 -2.2114 -0.0368142 19.8398 -0.311098 0 22.3885 -0.4656 1.38585 9.75076 26.6284 -0.0001 12.643 3.4389 -0.0931012 1.30561 24.9927 2.2603 21.606 7.4023 -6.744 0.305886 -3.04122 13.5163 -1.1332 -5.0146 10.0703 33.8425 22.3562 -0.0995 -28.05 -0.2431 -22.5907 -71.2636 -49.8722 0.0679 -23.3996 -0.1402 -2.41868 -5.43484 -22.5481 0.7932 -9.069 2.5189 9.93923e-016 3.18055e-015 -4.96962e-016 -0.8272 -3.3923 0.5977 -1.98785e-016 0 -3.97569e-016 -0.5649 -2.3158 0.4082 -5.96354e-016 4.77083e-015 9.39258e-015 0.9159 -9.2044 0.2193 9.93923e-016 3.18055e-015 -4.96962e-016 0.0117 -4.1944 -0.0248 -0.0127827 0.00232459 8.30088e-005 0.0071 -2.3249 -0.0142 -2.99577e-006 -1.41453e-007 -2.80249e-006 0.6113 -8.7231 -2.0637 9.93923e-016 3.18055e-015 -4.96962e-016 -0.1927 -3.8059 -0.2383 -0.0160406 0.0030006 0.000856368 -0.1091 -2.1688 -0.1362 2.80252e-006 -7.87672e-006 -1.12486e-005 -0.6151 -8.0947 -3.5641 9.93923e-016 3.18055e-015 -4.96962e-016 -0.4882 -2.341 -0.6462 -0.0125894 0.00312269 0.0028262 -0.3575 -1.7167 -0.4742 -2.5842e-015 0 -2.5345e-015 -1.42 -1.8761 1.4223 9.93923e-016 3.18055e-015 -4.96962e-016 -1.1471 -3.4929 2.6334 -1.98785e-016 0 -3.97569e-016 -0.823 -2.3 1.6571 -5.96354e-016 4.77083e-015 9.39258e-015 -2.2603 21.606 7.4023 0.212612 -6.99882 12.6434 -13.5187 -1.1334 -5.0155 -22.1254 -14.786 15.0502 0.0994 -28.0499 -0.2431 63.5271 -55.4048 15.9917 -0.0679 -23.3996 -0.1402 -31.2046 4.29811 -0.0805304 -0.7932 -9.0691 2.5189 -3.18055e-015 4.77083e-015 1.59028e-015 0.8272 -3.3923 0.5977 -6.36111e-015 1.59028e-015 -0 0.565 -2.3158 0.4082 0 3.18055e-015 -0 -0.916 -9.2044 0.2193 -3.18055e-015 4.77083e-015 1.59028e-015 -0.0117 -4.1944 -0.0248 0.0129445 0.0023134 -8.91304e-005 -0.0071 -2.3249 -0.0142 0 3.18055e-015 -0 -0.6113 -8.7231 -2.0637 -3.18055e-015 4.77083e-015 1.59028e-015 0.1927 -3.8059 -0.2383 0.0163235 0.00303583 -0.000873838 0.1091 -2.1688 -0.1362 2.20695e-032 -1.59028e-015 7.95139e-016 0.6151 -8.0947 -3.564 -3.18055e-015 4.77083e-015 1.59028e-015 0.4882 -2.341 -0.6462 0.014591 0.00367668 -0.00327248 0.3574 -1.7166 -0.4742 -3.18055e-015 -1.59028e-015 -0 1.4199 -1.8761 1.4221 -3.18055e-015 4.77083e-015 1.59028e-015 1.1472 -3.4929 2.6336 -6.36111e-015 1.59028e-015 -0 0.8229 -2.3 1.6571 0 3.18055e-015 -0 -9.412 3.9771 -0.7758 -41.5083 -41.1096 -4.03691 -0.7531 -40.938 0 175.733 69.3445 -178.326 0 -40.1986 0 -25.4175 29.9464 49.7354 -7.10543e-015 -4.4182 9.239 -8.00775e-007 -1.63665e-006 -2.83783e-007 9.4119 3.9773 -0.7758 9.06856 4.18773 -25.516 0.7532 -40.9383 8.88179e-016 -5.63548 4.31289 0.147595 0 -40.1986 -2.66454e-015 13.46 -6.03555 4.73085 0 -4.4182 9.239 1.54565e-006 1.14833e-005 -1.20238e-007 
-0.351444 2.13856 9.73098 -179.999 -89.9981 -179.999 -5.55112e-017 8.7983 -4.7612 -0.0358318 9.73662 -0.153623 5.55112e-017 8.0291 0.4195 -0.0457329 19.4733 -0.307793 0 9.9351 -2.2114 -0.045733 19.4734 -0.307794 0 22.3885 -0.4656 1.27407 10.4381 26.651 -0.0001 12.643 3.4389 -0.0855193 1.61313 24.9933 2.2603 21.606 7.4023 -6.24993 0.556377 -2.8069 13.5163 -1.1332 -5.0146 9.58464 33.8375 22.5651 -0.0995 -28.05 -0.2431 -23.2944 -71.2942 -50.547 0.0679 -23.3996 -0.1402 -2.86949 -4.85493 -22.9065 0.7932 -9.069 2.5189 1.39149e-015 3.18055e-015 1.09332e-015 -0.8272 -3.3923 0.5977 -1.98785e-016 3.18055e-015 7.55382e-015 -0.5649 -2.3158 0.4082 3.97569e-016 0 -1.78906e-015 0.9159 -9.2044 0.2193 1.39149e-015 3.18055e-015 1.09332e-015 0.0117 -4.1944 -0.0248 -0.0128245 0.00232364 8.94798e-005 0.0071 -2.3249 -0.0142 -1.19271e-015 3.18055e-015 1.36664e-014 0.6113 -8.7231 -2.0637 1.39149e-015 3.18055e-015 1.09332e-015 -0.1927 -3.8059 -0.2383 -0.0160579 0.00299479 0.000854882 -0.1091 -2.1688 -0.1362 2.75869e-032 1.59028e-015 -9.93923e-016 -0.6151 -8.0947 -3.5641 1.39149e-015 3.18055e-015 1.09332e-015 -0.4882 -2.341 -0.6462 -0.0125667 0.00311872 0.00282083 -0.3575 -1.7167 -0.4742 -1.19271e-015 7.95139e-015 -4.77083e-015 -1.42 -1.8761 1.4223 1.39149e-015 3.18055e-015 1.09332e-015 -1.1471 -3.4929 2.6334 -1.98785e-016 3.18055e-015 7.55382e-015 -0.823 -2.3 1.6571 3.97569e-016 0 -1.78906e-015 -2.2603 21.606 7.4023 0.635898 -6.45627 12.9012 -13.5187 -1.1334 -5.0155 -22.3726 -14.8905 14.9382 0.0994 -28.0499 -0.2431 62.2839 -54.6846 14.6222 -0.0679 -23.3996 -0.1402 -30.818 4.62583 -0.289651 -0.7932 -9.0691 2.5189 2.11883e-006 7.20414e-006 1.29991e-007 0.8272 -3.3923 0.5977 3.18055e-015 1.59028e-015 -3.97569e-016 0.565 -2.3158 0.4082 -2.11883e-006 -7.20414e-006 -1.29992e-007 -0.916 -9.2044 0.2193 2.11883e-006 7.20414e-006 1.29991e-007 -0.0117 -4.1944 -0.0248 0.0129298 0.00231013 -8.72718e-005 -0.0071 -2.3249 -0.0142 -3.18055e-015 -1.59028e-015 -0 -0.6113 -8.7231 -2.0637 2.11883e-006 7.20414e-006 1.29991e-007 0.1927 -3.8059 -0.2383 0.0163218 0.00302628 -0.000873561 0.1091 -2.1688 -0.1362 -4.41391e-032 3.18055e-015 7.95139e-016 0.6151 -8.0947 -3.564 2.11883e-006 7.20414e-006 1.29991e-007 0.4882 -2.341 -0.6462 0.0145642 0.00366528 -0.0032543 0.3574 -1.7166 -0.4742 4.41391e-032 3.18055e-015 -7.95139e-016 1.4199 -1.8761 1.4221 2.11883e-006 7.20414e-006 1.29991e-007 1.1472 -3.4929 2.6336 3.18055e-015 1.59028e-015 -3.97569e-016 0.8229 -2.3 1.6571 -2.11883e-006 -7.20414e-006 -1.29992e-007 -9.412 3.9771 -0.7758 -40.3669 -41.1662 -2.71213 -0.7531 -40.938 0 175.733 69.3433 -178.322 0 -40.1986 7.10543e-015 -24.2273 30.2241 49.1159 0 -4.4182 9.239 3.56533e-008 2.47672e-009 -1.00589e-007 9.4119 3.9773 -0.7758 9.06827 4.18793 -25.516 0.7532 -40.9383 4.44089e-016 -5.63541 4.31276 0.147575 1.77636e-015 -40.1986 8.88179e-016 13.4603 -6.03545 4.73084 3.55271e-015 -4.4182 9.239 -5.72591e-007 9.7907e-006 3.62776e-006 
